<svg xmlns="http://www.w3.org/2000/svg" viewBox="0 0 240 160" fill="none" stroke-width="2" stroke-linecap="round" stroke-linejoin="round" role="img" aria-label="A campaign: steps in a sequence"><title>A campaign: steps in a sequence</title><path class="ln" d="M20 134H220" pathLength="1" stroke="var(--nb-illus-ground, #262626)"/><path class="ln" d="M34 70a4 4 0 0 1 4-4h32a4 4 0 0 1 4 4v24a4 4 0 0 1-4 4H38a4 4 0 0 1-4-4Z" pathLength="1" stroke="var(--nb-illus-line, #8a8a8a)"/><path class="ln" d="M36 69l18 13 18-13" pathLength="1" stroke="var(--nb-illus-line, #8a8a8a)"/><path class="ln" d="M100 70a4 4 0 0 1 4-4h32a4 4 0 0 1 4 4v24a4 4 0 0 1-4 4h-32a4 4 0 0 1-4-4Z" pathLength="1" stroke="var(--nb-illus-line, #8a8a8a)"/><path class="ln" d="M102 69l18 13 18-13" pathLength="1" stroke="var(--nb-illus-line, #8a8a8a)"/><path class="ln" d="M74 82h26" pathLength="1" stroke="var(--nb-illus-faint, #3a3a3a)"/><path class="dots" d="M140 82h26" stroke="var(--nb-illus-accent, #f472b6)" stroke-dasharray="0.5 7"/><path class="ln" d="M166 70a4 4 0 0 1 4-4h32a4 4 0 0 1 4 4v24a4 4 0 0 1-4 4h-32a4 4 0 0 1-4-4Z" pathLength="1" stroke="var(--nb-illus-accent, #f472b6)"/><path class="ln" d="M168 69l18 13 18-13" pathLength="1" stroke="var(--nb-illus-accent, #f472b6)"/><path class="ln" d="M54 112v6M120 112v6M186 112v6" pathLength="1" stroke="var(--nb-illus-faint, #3a3a3a)"/></svg>
